<svg xmlns="http://www.w3.org/2000/svg" width="980" height="520" viewBox="0 0 980 520">
<rect width="100%" height="100%" fill="white"/>
<text x="490.0" y="34" text-anchor="middle" font-family="Arial" font-size="22" font-weight="700">Weather/calendar importance for daily request counts</text>
<line x1="310.0" y1="72" x2="310.0" y2="455" stroke="#94a3b8"/>
<rect x="310.0" y="77.7" width="12.1" height="20.4" fill="#2563eb" rx="3"/>
<text x="300" y="92.5" text-anchor="end" font-family="Arial" font-size="13">snowfall_sum_lag3</text>
<text x="329.1" y="92.5" text-anchor="start" font-family="Arial" font-size="12">0.318</text>
<rect x="310.0" y="109.7" width="12.4" height="20.4" fill="#2563eb" rx="3"/>
<text x="300" y="124.4" text-anchor="end" font-family="Arial" font-size="13">snowfall_3day</text>
<text x="329.4" y="124.4" text-anchor="start" font-family="Arial" font-size="12">0.326</text>
<rect x="310.0" y="141.6" width="19.6" height="20.4" fill="#2563eb" rx="3"/>
<text x="300" y="156.3" text-anchor="end" font-family="Arial" font-size="13">snowfall_sum_lag2</text>
<text x="336.6" y="156.3" text-anchor="start" font-family="Arial" font-size="12">0.517</text>
<rect x="310.0" y="173.5" width="21.4" height="20.4" fill="#2563eb" rx="3"/>
<text x="300" y="188.2" text-anchor="end" font-family="Arial" font-size="13">temperature_2m_min</text>
<text x="338.4" y="188.2" text-anchor="start" font-family="Arial" font-size="12">0.565</text>
<rect x="310.0" y="205.4" width="21.5" height="20.4" fill="#2563eb" rx="3"/>
<text x="300" y="220.1" text-anchor="end" font-family="Arial" font-size="13">snowfall_sum_lag1</text>
<text x="338.5" y="220.1" text-anchor="start" font-family="Arial" font-size="12">0.568</text>
<rect x="310.0" y="237.3" width="26.0" height="20.4" fill="#2563eb" rx="3"/>
<text x="300" y="252.0" text-anchor="end" font-family="Arial" font-size="13">weekend</text>
<text x="343.0" y="252.0" text-anchor="start" font-family="Arial" font-size="12">0.686</text>
<rect x="310.0" y="269.2" width="30.3" height="20.4" fill="#2563eb" rx="3"/>
<text x="300" y="284.0" text-anchor="end" font-family="Arial" font-size="13">apparent_temperature_min</text>
<text x="347.3" y="284.0" text-anchor="start" font-family="Arial" font-size="12">0.798</text>
<rect x="310.0" y="301.2" width="57.3" height="20.4" fill="#2563eb" rx="3"/>
<text x="300" y="315.9" text-anchor="end" font-family="Arial" font-size="13">snowfall_sum</text>
<text x="374.3" y="315.9" text-anchor="start" font-family="Arial" font-size="12">1.51</text>
<rect x="310.0" y="333.1" width="89.1" height="20.4" fill="#2563eb" rx="3"/>
<text x="300" y="347.8" text-anchor="end" font-family="Arial" font-size="13">temperature_2m_mean</text>
<text x="406.1" y="347.8" text-anchor="start" font-family="Arial" font-size="12">2.35</text>
<rect x="310.0" y="365.0" width="113.4" height="20.4" fill="#2563eb" rx="3"/>
<text x="300" y="379.7" text-anchor="end" font-family="Arial" font-size="13">temperature_2m_max</text>
<text x="430.4" y="379.7" text-anchor="start" font-family="Arial" font-size="12">2.99</text>
<rect x="310.0" y="396.9" width="595.8" height="20.4" fill="#2563eb" rx="3"/>
<text x="300" y="411.6" text-anchor="end" font-family="Arial" font-size="13">temperature_2m_mean_lag1</text>
<text x="912.8" y="411.6" text-anchor="start" font-family="Arial" font-size="12">15.7</text>
<rect x="310.0" y="428.8" width="625.0" height="20.4" fill="#2563eb" rx="3"/>
<text x="300" y="443.5" text-anchor="end" font-family="Arial" font-size="13">doy_cos</text>
<text x="942.0" y="443.5" text-anchor="start" font-family="Arial" font-size="12">16.5</text>
<text x="622.5" y="502" text-anchor="middle" font-family="Arial" font-size="14">Increase in test MAE after permutation</text>
</svg>